<mxfile host="app.diagrams.net" modified="2023-04-04T09:59:52.934Z" agent="Mozilla/5.0 (Macintosh; Intel Mac OS X 10_15_7) AppleWebKit/537.36 (KHTML, like Gecko) Chrome/111.0.0.0 Safari/537.36" etag="oWWIaU2FKUd5AddOLnwj" version="21.1.1" type="device">
  <diagram name="第 1 页" id="yDgIAfu6GQKcgG-BIOaN">
    <mxGraphModel dx="1434" dy="739" grid="1" gridSize="10" guides="1" tooltips="1" connect="1" arrows="1" fold="1" page="1" pageScale="1" pageWidth="827" pageHeight="1169" math="0" shadow="0">
      <root>
        <mxCell id="0" />
        <mxCell id="1" parent="0" />
        <mxCell id="0InCvHO0cNheCsOLY4L--2" value="" style="whiteSpace=wrap;html=1;aspect=fixed;fillColor=none;dashed=1;" vertex="1" parent="1">
          <mxGeometry x="567" y="320" width="240" height="240" as="geometry" />
        </mxCell>
        <mxCell id="0InCvHO0cNheCsOLY4L--6" style="edgeStyle=orthogonalEdgeStyle;rounded=0;orthogonalLoop=1;jettySize=auto;html=1;exitX=1;exitY=0.5;exitDx=0;exitDy=0;startArrow=diamondThin;startFill=0;dashed=1;endArrow=none;endFill=0;strokeWidth=1;" edge="1" parent="1" source="0InCvHO0cNheCsOLY4L--33">
          <mxGeometry relative="1" as="geometry">
            <mxPoint x="220" y="354.5" as="sourcePoint" />
            <mxPoint x="567" y="354.5" as="targetPoint" />
          </mxGeometry>
        </mxCell>
        <mxCell id="0InCvHO0cNheCsOLY4L--7" value="WebSocket连接" style="edgeLabel;html=1;align=center;verticalAlign=middle;resizable=0;points=[];" vertex="1" connectable="0" parent="0InCvHO0cNheCsOLY4L--6">
          <mxGeometry x="-0.0663" y="-1" relative="1" as="geometry">
            <mxPoint as="offset" />
          </mxGeometry>
        </mxCell>
        <mxCell id="0InCvHO0cNheCsOLY4L--8" value="公共消息池&lt;br&gt;/topic/public" style="ellipse;whiteSpace=wrap;html=1;" vertex="1" parent="1">
          <mxGeometry x="567" y="500" width="100" height="60" as="geometry" />
        </mxCell>
        <mxCell id="0InCvHO0cNheCsOLY4L--11" value="私聊消息池&lt;br&gt;/user/{username}" style="ellipse;whiteSpace=wrap;html=1;" vertex="1" parent="1">
          <mxGeometry x="707" y="500" width="100" height="60" as="geometry" />
        </mxCell>
        <mxCell id="0InCvHO0cNheCsOLY4L--31" style="edgeStyle=orthogonalEdgeStyle;rounded=0;orthogonalLoop=1;jettySize=auto;html=1;exitX=1;exitY=0.5;exitDx=0;exitDy=0;entryX=1;entryY=0.5;entryDx=0;entryDy=0;" edge="1" parent="1" source="0InCvHO0cNheCsOLY4L--13" target="0InCvHO0cNheCsOLY4L--8">
          <mxGeometry relative="1" as="geometry">
            <mxPoint x="690" y="480" as="targetPoint" />
          </mxGeometry>
        </mxCell>
        <mxCell id="0InCvHO0cNheCsOLY4L--32" value="消息分发" style="edgeLabel;html=1;align=center;verticalAlign=middle;resizable=0;points=[];" vertex="1" connectable="0" parent="0InCvHO0cNheCsOLY4L--31">
          <mxGeometry x="0.2055" relative="1" as="geometry">
            <mxPoint as="offset" />
          </mxGeometry>
        </mxCell>
        <mxCell id="0InCvHO0cNheCsOLY4L--36" style="edgeStyle=orthogonalEdgeStyle;rounded=0;orthogonalLoop=1;jettySize=auto;html=1;exitX=1;exitY=0.5;exitDx=0;exitDy=0;entryX=0;entryY=0.5;entryDx=0;entryDy=0;" edge="1" parent="1" source="0InCvHO0cNheCsOLY4L--13" target="0InCvHO0cNheCsOLY4L--11">
          <mxGeometry relative="1" as="geometry" />
        </mxCell>
        <mxCell id="0InCvHO0cNheCsOLY4L--13" value="消息代理&lt;br&gt;/app" style="ellipse;whiteSpace=wrap;html=1;" vertex="1" parent="1">
          <mxGeometry x="567" y="400" width="100" height="60" as="geometry" />
        </mxCell>
        <mxCell id="0InCvHO0cNheCsOLY4L--19" style="edgeStyle=orthogonalEdgeStyle;rounded=0;orthogonalLoop=1;jettySize=auto;html=1;exitX=1;exitY=0.5;exitDx=0;exitDy=0;strokeColor=#FF9999;endArrow=none;endFill=0;startArrow=classic;startFill=1;" edge="1" parent="1" source="0InCvHO0cNheCsOLY4L--18" target="0InCvHO0cNheCsOLY4L--11">
          <mxGeometry relative="1" as="geometry">
            <Array as="points">
              <mxPoint x="757" y="480" />
            </Array>
          </mxGeometry>
        </mxCell>
        <mxCell id="0InCvHO0cNheCsOLY4L--35" value="监听回调" style="edgeLabel;html=1;align=center;verticalAlign=middle;resizable=0;points=[];" vertex="1" connectable="0" parent="0InCvHO0cNheCsOLY4L--19">
          <mxGeometry x="-0.1685" y="1" relative="1" as="geometry">
            <mxPoint as="offset" />
          </mxGeometry>
        </mxCell>
        <mxCell id="0InCvHO0cNheCsOLY4L--28" style="edgeStyle=orthogonalEdgeStyle;rounded=0;orthogonalLoop=1;jettySize=auto;html=1;exitX=1;exitY=0.5;exitDx=0;exitDy=0;entryX=0;entryY=0.5;entryDx=0;entryDy=0;" edge="1" parent="1" source="0InCvHO0cNheCsOLY4L--20" target="0InCvHO0cNheCsOLY4L--13">
          <mxGeometry relative="1" as="geometry" />
        </mxCell>
        <mxCell id="0InCvHO0cNheCsOLY4L--29" value="发送消息" style="edgeLabel;html=1;align=center;verticalAlign=middle;resizable=0;points=[];" vertex="1" connectable="0" parent="0InCvHO0cNheCsOLY4L--28">
          <mxGeometry x="-0.1009" y="-1" relative="1" as="geometry">
            <mxPoint as="offset" />
          </mxGeometry>
        </mxCell>
        <mxCell id="0InCvHO0cNheCsOLY4L--22" value="" style="endArrow=none;html=1;rounded=0;entryX=0.5;entryY=0;entryDx=0;entryDy=0;fillColor=#fad9d5;strokeColor=#FF9999;endFill=0;startArrow=none;startFill=0;" edge="1" parent="1" target="0InCvHO0cNheCsOLY4L--8">
          <mxGeometry width="50" height="50" relative="1" as="geometry">
            <mxPoint x="617" y="480" as="sourcePoint" />
            <mxPoint x="667" y="430" as="targetPoint" />
          </mxGeometry>
        </mxCell>
        <mxCell id="0InCvHO0cNheCsOLY4L--34" value="&lt;b style=&quot;&quot;&gt;Stomp_Server&lt;/b&gt;" style="text;html=1;strokeColor=none;fillColor=none;align=center;verticalAlign=middle;whiteSpace=wrap;rounded=0;" vertex="1" parent="1">
          <mxGeometry x="567" y="340" width="80" height="30" as="geometry" />
        </mxCell>
        <mxCell id="0InCvHO0cNheCsOLY4L--1" value="" style="whiteSpace=wrap;html=1;aspect=fixed;fillColor=none;dashed=1;" vertex="1" parent="1">
          <mxGeometry x="20" y="320" width="240" height="240" as="geometry" />
        </mxCell>
        <mxCell id="0InCvHO0cNheCsOLY4L--37" style="edgeStyle=orthogonalEdgeStyle;rounded=0;orthogonalLoop=1;jettySize=auto;html=1;exitX=0.5;exitY=0;exitDx=0;exitDy=0;strokeColor=#FF9999;" edge="1" parent="1" source="0InCvHO0cNheCsOLY4L--18">
          <mxGeometry relative="1" as="geometry">
            <mxPoint x="120" y="250" as="targetPoint" />
          </mxGeometry>
        </mxCell>
        <mxCell id="0InCvHO0cNheCsOLY4L--38" value="消息查阅" style="edgeLabel;html=1;align=center;verticalAlign=middle;resizable=0;points=[];" vertex="1" connectable="0" parent="0InCvHO0cNheCsOLY4L--37">
          <mxGeometry x="-0.32" y="1" relative="1" as="geometry">
            <mxPoint as="offset" />
          </mxGeometry>
        </mxCell>
        <mxCell id="0InCvHO0cNheCsOLY4L--18" value="消息订阅" style="ellipse;whiteSpace=wrap;html=1;" vertex="1" parent="1">
          <mxGeometry x="70" y="450" width="100" height="60" as="geometry" />
        </mxCell>
        <mxCell id="0InCvHO0cNheCsOLY4L--20" value="消息池" style="rounded=1;whiteSpace=wrap;html=1;" vertex="1" parent="1">
          <mxGeometry x="170" y="410" width="90" height="40" as="geometry" />
        </mxCell>
        <mxCell id="0InCvHO0cNheCsOLY4L--24" value="" style="edgeStyle=orthogonalEdgeStyle;rounded=0;orthogonalLoop=1;jettySize=auto;html=1;entryX=0;entryY=0.5;entryDx=0;entryDy=0;fillColor=#b1ddf0;strokeColor=#000000;" edge="1" parent="1" source="0InCvHO0cNheCsOLY4L--23" target="0InCvHO0cNheCsOLY4L--20">
          <mxGeometry relative="1" as="geometry">
            <mxPoint x="140" y="310" as="targetPoint" />
            <Array as="points">
              <mxPoint x="150" y="430" />
            </Array>
          </mxGeometry>
        </mxCell>
        <mxCell id="0InCvHO0cNheCsOLY4L--26" value="键盘输入" style="edgeLabel;html=1;align=center;verticalAlign=middle;resizable=0;points=[];" vertex="1" connectable="0" parent="0InCvHO0cNheCsOLY4L--24">
          <mxGeometry x="0.1333" relative="1" as="geometry">
            <mxPoint as="offset" />
          </mxGeometry>
        </mxCell>
        <mxCell id="0InCvHO0cNheCsOLY4L--23" value="Actor" style="shape=umlActor;verticalLabelPosition=bottom;verticalAlign=top;html=1;outlineConnect=0;" vertex="1" parent="1">
          <mxGeometry x="105" y="180" width="30" height="60" as="geometry" />
        </mxCell>
        <mxCell id="0InCvHO0cNheCsOLY4L--33" value="&lt;b style=&quot;&quot;&gt;Stomp_Client&lt;/b&gt;" style="text;html=1;strokeColor=none;fillColor=none;align=center;verticalAlign=middle;whiteSpace=wrap;rounded=0;" vertex="1" parent="1">
          <mxGeometry x="180" y="340" width="80" height="30" as="geometry" />
        </mxCell>
        <mxCell id="0InCvHO0cNheCsOLY4L--40" value="" style="endArrow=classic;html=1;rounded=0;" edge="1" parent="1">
          <mxGeometry width="50" height="50" relative="1" as="geometry">
            <mxPoint x="30" y="585" as="sourcePoint" />
            <mxPoint x="90" y="585" as="targetPoint" />
          </mxGeometry>
        </mxCell>
        <mxCell id="0InCvHO0cNheCsOLY4L--41" value="Client to Server" style="text;html=1;strokeColor=none;fillColor=none;align=center;verticalAlign=middle;whiteSpace=wrap;rounded=0;" vertex="1" parent="1">
          <mxGeometry x="20" y="595" width="90" height="30" as="geometry" />
        </mxCell>
        <mxCell id="0InCvHO0cNheCsOLY4L--42" value="" style="endArrow=classic;html=1;rounded=0;strokeColor=#FF9999;" edge="1" parent="1">
          <mxGeometry width="50" height="50" relative="1" as="geometry">
            <mxPoint x="120" y="585" as="sourcePoint" />
            <mxPoint x="180" y="585" as="targetPoint" />
          </mxGeometry>
        </mxCell>
        <mxCell id="0InCvHO0cNheCsOLY4L--43" value="Server to Client" style="text;html=1;strokeColor=none;fillColor=none;align=center;verticalAlign=middle;whiteSpace=wrap;rounded=0;" vertex="1" parent="1">
          <mxGeometry x="110" y="595" width="90" height="30" as="geometry" />
        </mxCell>
      </root>
    </mxGraphModel>
  </diagram>
</mxfile>
